name C:\Users\u0101727\Documents\MyRepositories\upper-imu-dc\Results\main_tracking\Case_10\FLX01_angularVelocities_groundFrame.mot
datacolumns 4
datarows 47
range 5.01000000 5.47000000
endheader 
time	radius_imu_x	radius_imu_y	radius_imu_z	
          5.01000000	          0.69736734	         -0.00335291	         -1.23687896	
          5.02000000	          0.59146042	          0.04529060	         -1.25718705	
          5.03000000	          0.45612143	          0.10606670	         -1.28901558	
          5.04000000	          0.30440677	          0.17597662	         -1.32723046	
          5.05000000	          0.16336855	          0.24704764	         -1.36153827	
          5.06000000	          0.06333881	          0.30889724	         -1.38050515	
          5.07000000	          0.02562935	          0.35272349	         -1.37622348	
          5.08000000	          0.05484490	          0.37465108	         -1.34726670	
          5.09000000	          0.13912683	          0.37673607	         -1.29860664	
          5.10000000	          0.25694780	          0.36539847	         -1.23897409	
          5.11000000	          0.38561098	          0.34863035	         -1.17752544	
          5.12000000	          0.50654571	          0.33390014	         -1.12174592	
          5.13000000	          0.60582905	          0.32775254	         -1.07724337	
          5.14000000	          0.67306599	          0.33614269	         -1.04823821	
          5.15000000	          0.70309729	          0.36354842	         -1.03698391	
          5.16000000	          0.70076988	          0.41039832	         -1.04196107	
          5.17000000	          0.68373602	          0.47090973	         -1.05674662	
          5.18000000	          0.67815435	          0.53409445	         -1.07153870	
          5.19000000	          0.70789690	          0.58840008	         -1.07712958	
          5.20000000	          0.78328497	          0.62758805	         -1.06905123	
          5.21000000	          0.89520521	          0.65485083	         -1.04972387	
          5.22000000	          1.01662170	          0.68354518	         -1.02792177	
          5.23000000	          1.11044718	          0.73430306	         -1.01597716	
          5.24000000	          1.14138923	          0.82909156	         -1.02555757	
          5.25000000	          1.08817961	          0.98377849	         -1.06325910	
          5.26000000	          0.95138285	          1.20202977	         -1.12775784	
          5.27000000	          0.75315968	          1.47337439	         -1.20989682	
          5.28000000	          0.52952586	          1.77615450	         -1.29555890	
          5.29000000	          0.31914205	          2.08371330	         -1.36986097	
          5.30000000	          0.15316878	          2.37124206	         -1.42100439	
          5.31000000	          0.04937459	          2.62091612	         -1.44259954	
          5.32000000	          0.01144899	          2.82399327	         -1.43407459	
          5.33000000	          0.03218085	          2.98005126	         -1.39956911	
          5.34000000	          0.09811491	          3.09456419	         -1.34607867	
          5.35000000	          0.19365446	          3.17619442	         -1.28158589	
          5.36000000	          0.30366667	          3.23471737	         -1.21367299	
          5.37000000	          0.41475447	          3.27975711	         -1.14873821	
          5.38000000	          0.51581370	          3.32005273	         -1.09166467	
          5.39000000	          0.59836216	          3.36293646	         -1.04572881	
          5.40000000	          0.65696865	          3.41373721	         -1.01255017	
          5.41000000	          0.68989600	          3.47496059	         -0.99197292	
          5.42000000	          0.69961582	          3.54551455	         -0.98198452	
          5.43000000	          0.69256352	          3.62058793	         -0.97892455	
          5.44000000	          0.67780112	          3.69259241	         -0.97812902	
          5.45000000	          0.66489906	          3.75298242	         -0.97489093	
          5.46000000	          0.66178456	          3.79428735	         -0.96542978	
          5.47000000	          0.67329432	          3.81161630	         -0.94755636	
